<svg width="232" height="36" viewBox="0 0 232 36" fill="none" xmlns="http://www.w3.org/2000/svg">
<path d="M206.422 27.7431H222.936V36H198.165V0H222.936V8.25688H206.422V27.7431ZM231.193 27.7431H222.936V8.25688H231.193V27.7431Z" fill="white"/>
<path d="M132.11 36H123.854V0H148.624V8.25688H132.11V16.5138H148.624V24.7706H132.11V36ZM156.881 16.5138H148.624V8.25688H156.881V16.5138ZM156.881 36H148.624V24.7706H156.881V36Z" fill="white"/>
<path d="M82.5684 24.7706H74.3115V0H82.5684V24.7706ZM90.8253 24.7706V0H99.0822V24.7706H90.8253ZM107.339 24.7706V0H115.596V24.7706H107.339ZM90.8253 36H82.5684V24.7706H90.8253V36ZM107.339 36H99.0822V24.7706H107.339V36Z" fill="white"/>
<path d="M66.0548 27.7431V36H41.2842V0H49.5411V27.7431H66.0548Z" fill="white"/>
<path d="M189.908 27.7431V36H165.138V0H173.395V27.7431H189.908Z" fill="white"/>
<path d="M8.25688 36H0V0H24.7706V8.25688H8.25688V16.5138H24.7706V24.7706H8.25688V36ZM33.0275 16.5138H24.7706V8.25688H33.0275V16.5138ZM33.0275 36H24.7706V24.7706H33.0275V36Z" fill="white"/>
</svg>
